<svg xmlns="http://www.w3.org/2000/svg" viewBox="0 0 500 500"><g id="freepik--speech-bubbles--inject-28"><polygon points="90.19 187.86 298.27 187.86 298.27 97.06 90.19 97.06 90.19 97.06 90.19 187.86 90.19 187.86" style="fill:#455a64"></polygon><polygon points="325.05 187.86 298.27 187.86 298.27 159.97 325.05 187.86" style="fill:#455a64"></polygon><rect x="106.76" y="112.76" width="174.95" height="1.73" style="fill:#fff"></rect><rect x="106.76" y="122.07" width="121.81" height="1.73" style="fill:#fff"></rect><rect x="106.76" y="140.71" width="153.9" height="1.73" style="fill:#fff"></rect><rect x="106.76" y="150.03" width="174.95" height="1.73" style="fill:#fff"></rect><rect x="106.76" y="159.34" width="174.95" height="1.73" style="fill:#fff"></rect><rect x="106.76" y="168.66" width="104.03" height="1.73" style="fill:#fff"></rect><polygon points="90.19 402.94 298.27 402.94 298.27 341.11 90.19 341.11 90.19 341.11 90.19 402.94 90.19 402.94" style="fill:#FFB511"></polygon><polygon points="325.05 402.94 298.27 402.94 298.27 375.06 325.05 402.94" style="fill:#FFB511"></polygon><rect x="106.76" y="355.8" width="153.9" height="1.73" style="fill:#fff"></rect><rect x="106.76" y="365.11" width="174.95" height="1.73" style="fill:#fff"></rect><rect x="106.76" y="374.43" width="174.95" height="1.73" style="fill:#fff"></rect><rect x="106.76" y="383.75" width="104.03" height="1.73" style="fill:#fff"></rect><rect x="201.73" y="207.22" width="208.08" height="80.08" style="fill:#dbdbdb"></rect><polygon points="174.95 287.3 201.73 287.3 201.73 259.41 174.95 287.3" style="fill:#dbdbdb"></polygon><rect x="218.63" y="249.03" width="160.71" height="1.73" style="fill:#fff"></rect><rect x="218.63" y="258.35" width="141.02" height="1.73" style="fill:#fff"></rect><rect x="218.63" y="230.39" width="146.76" height="1.73" style="fill:#fff"></rect><rect x="218.63" y="221.08" width="171.77" height="1.73" style="fill:#fff"></rect><rect x="218.63" y="267.66" width="148.91" height="1.73" style="fill:#fff"></rect><path d="M368.46,129.38c6.41-1.95,9.76-6.27,9.47-12.4-4-1.12-7.94-4.46-7.94-9.48v-1.11a9,9,0,0,1,9.49-9.33c6.12,0,10,4.73,10,12.25v1.4c0,9.47-2.5,16-7,20.34-3.63,3.76-9.06,6-13.11,6-2.92,0-4.31-1.67-4.31-3.9C365.12,131.19,366.51,129.93,368.46,129.38Zm-32.32,0c6.41-1.95,9.75-6.27,9.47-12.4-4-1.12-7.94-4.46-7.94-9.48v-1.11a9,9,0,0,1,9.47-9.33c6.14,0,10,4.73,10,12.25v1.4c0,9.47-2.51,16-6.83,20.34-3.77,3.76-9.2,6-13.1,6-2.93,0-4.46-1.67-4.46-3.9C332.79,131.19,334.18,129.93,336.14,129.38Z" style="fill:#455a64"></path></g><g id="freepik--Character--inject-28"><path d="M203.16,331l.05.18c.41,1.58,3.4,13.32,7.33,28.82.29,1.12.59,2.26.89,3.43,6.55,25.77,15.29,60.08,19.42,76.34h8.91c0,.19,0,.39,0,.58a5.78,5.78,0,0,0,0-.58h65.34c-6.73-26.2-23.79-94.8-26.81-106.92-.06-.24-.12-.47-.16-.66l-.3-1.19Z" style="fill: rgb(247, 169, 160);"></path><path d="M203.16,331l.05.18L210,361l.81,3.54L228,439.8h11.74c0,.19,0,.39,0,.58a5.78,5.78,0,0,0,0-.58h65.74L278.3,332.88l-.16-.66-.3-1.19Z" style="fill:#263238"></path><path d="M277.87,331.15,249.27,439.8h-9.5a1.42,1.42,0,0,1,0,.29,2.81,2.81,0,0,0,0-.29H228l-17.19-75.23L210,361l-6.81-29.82-.05-.18h74.68Z" style="fill:#37474f"></path><path d="M275.42,331v0c0,.05,0,.18,0,.38s0,.67-.08,1.18v0c-.06.75-.13,1.76-.24,3a.17.17,0,0,0,0,.08q-.07.94-.18,2.07c-.12,1.26-.25,2.66-.4,4.2-.05.51-.11,1.05-.17,1.6a1.66,1.66,0,0,0,0,.24c0,.32-.08.64-.11,1s-.1.88-.16,1.33-.12,1.1-.19,1.66c-.13,1.12-.27,2.28-.41,3.46l-.15,1.15c-.21,1.65-.45,3.34-.69,5.08-.11.75-.23,1.5-.33,2.26s-.27,1.71-.4,2.57c0,.31-.09.63-.14.94-.51,3.17-1.08,6.47-1.72,9.8-.09.51-.2,1-.31,1.49-.26,1.34-.53,2.68-.82,4-.14.69-.3,1.39-.45,2.08s-.25,1.17-.4,1.75c-.66,2.92-1.39,5.83-2.19,8.68-.17.62-.35,1.24-.52,1.86s-.39,1.34-.59,2c-.28,1-.57,1.95-.88,2.9s-.53,1.61-.8,2.4c-.08.26-.18.52-.27.77s-.17.5-.27.75l-.1.05-.24.08-.26.1a2,2,0,0,0-.28.11c-.5.19-1.23.47-2.16.87l-.93.39c-.51.23-1.08.46-1.69.75h0l-.8.37-.17.08-.76.36-1.65.79c-1.14.56-2.38,1.18-3.7,1.87-.66.33-1.34.69-2,1.07l-1.08.59c-1.08.59-2.21,1.23-3.39,1.91l-.79.47s0,0-.06,0l-.06,0-.85.49h0l-.63.37s0,.15,0,.43a1.32,1.32,0,0,0,0,.29,2.91,2.91,0,0,0,0,.31c0,.27,0,.61,0,1s0,.48,0,.76c0,.43,0,.89-.06,1.41,0,.15,0,.31,0,.46a2.91,2.91,0,0,0,0,.3c0,.39,0,.81,0,1.25,0,.1,0,.2,0,.3s0,.35,0,.52v.15c0,.16,0,.33,0,.5,0,.38,0,.77,0,1.18,0,.86-.07,1.75-.11,2.7,0,.23,0,.46,0,.68,0,.54,0,1.08,0,1.64s0,1.07-.07,1.62,0,.92-.06,1.38,0,.69,0,1c0,.54,0,1.07-.07,1.62-.06,1.46-.12,2.93-.17,4.39,0,1.1-.08,2.23-.13,3.39H165.2q.33-4.33.67-8.66c.25-3.22.5-6.43.72-9.61a5.48,5.48,0,0,0,0-.57c1-12.43,1.9-24.45,2.76-35.45q.48-6.28.94-12.07c0-.65.09-1.3.15-1.95.13-1.74.28-3.46.4-5.14.23-2.85.45-5.57.64-8.13.06-.72.12-1.44.18-2.13.39-5.06.74-9.51,1-13.21,0-.69.1-1.36.14-2,.51-6.28.79-9.86.79-9.86h44.89Z" style="fill: rgb(247, 169, 160);"></path><path d="M161.75,439.8h78c0-1.11.09-2.25.14-3.39,0-1.46.11-2.93.17-4.39.09-2.51.19-5,.28-7.3,0-.22,0-.45,0-.68.06-1.57.11-3.05.17-4.38v-.15q0-1.11.09-2.07a2.91,2.91,0,0,1,0-.3c0-1,.07-1.92.11-2.63,0-.37,0-.71,0-1a2.91,2.91,0,0,1,0-.31,1.32,1.32,0,0,1,0-.29c0-.28,0-.43,0-.43h0l.63-.37h0l.85-.49h0l.91-.52c1.18-.68,2.31-1.32,3.39-1.91s2.13-1.15,3.12-1.66c1.32-.69,2.56-1.31,3.7-1.87l1.65-.79.76-.36.17-.07h0l.8-.36h0l1.69-.75.93-.39c.93-.4,1.66-.68,2.16-.87a2,2,0,0,1,.28-.11l.26-.1.24-.08.1-.05c.1-.25.18-.5.27-.75s.2-.52.28-.79c.28-.78.54-1.58.79-2.38.31-1,.6-1.92.88-2.9.2-.65.39-1.32.59-2s.35-1.24.52-1.86c.8-2.85,1.53-5.76,2.19-8.68.15-.58.28-1.17.4-1.75s.31-1.39.45-2.08v0c.28-1.33.56-2.66.81-4,.84-4.17,1.55-8.28,2.17-12.23.13-.86.27-1.72.4-2.57s.22-1.51.33-2.26c.24-1.74.48-3.43.69-5.08l.15-1.15c.14-1.18.28-2.34.41-3.46.07-.56.13-1.12.19-1.66s.11-.89.16-1.33.07-.66.11-1a1.66,1.66,0,0,1,0-.24c.06-.55.11-1.09.17-1.6.15-1.54.28-2.94.4-4.2.06-.75.13-1.44.18-2.07a.17.17,0,0,1,0-.08c.1-1.23.18-2.23.24-3v0c0-.51.06-.9.08-1.18s0-.33,0-.38v0H173.68s-18,27.32-9.07,63.23C164.61,394.26,162.9,422.76,161.75,439.8Z" style="fill:#263238"></path><path d="M231.4,416.42c3.43-2.38,7.13-4.38,10.76-6.43s7.48-4.11,11.35-5.91A185.56,185.56,0,0,1,277,395.57c.2-.07.34.26.14.35-7.65,3.28-15.07,7.05-22.68,10.42-3.82,1.7-7.68,3.33-11.51,5s-7.57,3.6-11.43,5.21C231.38,416.61,231.31,416.48,231.4,416.42Z" style="fill:#37474f"></path><path d="M252.33,379c.1-3.75.36-7.5.55-11.25.44-8.85.78-17.74,1.6-26.56a.28.28,0,0,1,.55,0c.11,6.84-.15,13.71-.29,20.55-.07,3.43-.17,6.85-.26,10.27a97.48,97.48,0,0,0-.07,9.82c.18,2.46.73,7.26,3.94,7.55,3,.28,4.7-3,5.46-5.39,1.92-6.09,2.61-12.67,3.23-19,.37-3.75.74-7.49,1-11.26a103.76,103.76,0,0,0,.38-11.56c0-.24.36-.23.37,0,.21,3.87.74,7.71.87,11.59s.14,7.73-.11,11.58-.55,7.41-1.1,11.07a40,40,0,0,1-2.38,9.79c-1.12,2.59-3,5-5.95,5.55a6.59,6.59,0,0,1-1.08.11c0,.79-.14,1.59-.2,2.38-.08,1.24-.24,2.47-.4,3.7a29.37,29.37,0,0,1-.76,3.59,13.38,13.38,0,0,1-1.26,3.42.19.19,0,0,1-.35-.1,17.41,17.41,0,0,1,.29-3.53c.17-1.21.34-2.43.59-3.62s.46-2.34.7-3.52c.16-.78.27-1.59.42-2.39a5.74,5.74,0,0,1-4.3-3.38C252.37,385.52,252.26,382.11,252.33,379Z" style="fill:#37474f"></path><path d="M171.13,376.81c5.37.38,10.67,1.07,16.05.43a28,28,0,0,0,14-5.48c8.85-6.87,12.73-18.1,15.13-28.64a.19.19,0,0,1,.37.06c-1,9.14-3,18.59-8.86,25.94a28.49,28.49,0,0,1-9.42,7.76,27.59,27.59,0,0,1-12.44,2.56,60,60,0,0,1-14.9-2A.31.31,0,0,1,171.13,376.81Z" style="fill:#37474f"></path><path d="M239.76,439.8c0,.19,0,.39,0,.58a5.78,5.78,0,0,0,0-.58h.38c.38-5.88,1.26-23.65,1.32-27.67v-.6c0-.16-.63.07-.65.22s0,.35-.06.59c-.41,3.84-1.4,17.58-1.64,22.17-.08,1.76-.16,3.52-.21,5.29Z" style="fill:#37474f"></path><path d="M263.2,233h-7.58c-.5-3.7-1.6-9.73-3.42-12.95,0,0,1.69,8.16,1,12.95h-6.67c-.58-5.16-2.15-14.52-6.22-21.13.19.7,3.54,13.36,2.74,21.13H184.37c-2.6-12.38-.59-25.86-1.61-22.92-2.73,7.85-3.52,17.4-3.68,22.92h-6.54a40.89,40.89,0,0,1,.53-9.35c.86-4.11-2.51,4-2.94,9.35H166s-.83-17.64,5.63-30.22c8.57-16.73,3.55-22.93,7.07-41.25,4-20.84,31.4-46.06,58.78-19.7,2.21,2.13,15.85,6.32,15.07,32.67-.44,14.9-3.26,22.78,1.86,30.44C260.76,214.5,263.48,225,263.2,233Z" style="fill:#263238"></path><path d="M163.29,230.54A47.21,47.21,0,0,1,165,211.66a59.77,59.77,0,0,1,3.39-9c.66-1.44,1.47-2.87,2.17-4.24a31,31,0,0,0,1.84-4.22c2.09-5.82,2.74-12.1,3.53-18.35.39-3.14.81-6.29,1.45-9.4a42.7,42.7,0,0,1,2.89-9.06c-2,6-2.38,12.33-2.92,18.6-.24,3.15-.54,6.31-1,9.47a51.19,51.19,0,0,1-2.24,9.36,33.08,33.08,0,0,1-2,4.43c-.76,1.43-1.5,2.75-2.2,4.16a66.5,66.5,0,0,0-3.59,8.63,60.08,60.08,0,0,0-2.3,9.08,45.74,45.74,0,0,0-.63,4.66C163.34,227.39,163.27,229,163.29,230.54Z" style="fill:#263238"></path><path d="M252.52,174.53c.13,2.53-.05,5.06,0,7.58s.06,5,.28,7.5a44.79,44.79,0,0,0,1.25,7.32c.14.6.35,1.18.52,1.77l.13.44.14.37c.11.25.25.51.39.77.59,1.06,1.27,2.13,1.93,3.21,1.3,2.17,2.58,4.39,3.69,6.7a49.26,49.26,0,0,1,2.79,7.15,41.26,41.26,0,0,1,1.52,7.52,38,38,0,0,1,0,7.62,48.24,48.24,0,0,0-2.85-14.69,71.18,71.18,0,0,0-6.68-13.35c-.65-1.08-1.32-2.15-1.94-3.31-.16-.3-.31-.6-.45-.92s-.13-.36-.19-.52l-.14-.47c-.17-.62-.38-1.24-.5-1.87a39.7,39.7,0,0,1-1-7.65,58.73,58.73,0,0,1,.26-7.63C251.88,179.54,252.24,177,252.52,174.53Z" style="fill:#263238"></path><path d="M226.38,226.51c33.84,15.59,69.3,15.17,83.31,13.34,11.79-1.54,74.77-48.52,75.65-54.67,1-7-26-27.77-41.87-22.8-1.66.52-43.78,40.4-47.28,41-6.4,1.12-38.65,2.76-52.61,4C220.35,209.59,209.35,218.67,226.38,226.51Z" style="fill: rgb(247, 169, 160);"></path><path d="M223.74,228.29c10.47,6.27,34.36,13.61,34.36,13.61l24.29-38.6s-39.55-.48-60,6.72C214.24,212.91,213.16,221.94,223.74,228.29Z" style="fill:#455a64"></path><path d="M220.51,211.25a2.64,2.64,0,0,1-2.64,2.64,2.56,2.56,0,0,1-.62-.07,9,9,0,0,1,3.24-2.92C220.5,211,220.51,211.13,220.51,211.25Zm23.4,2.64a2.64,2.64,0,1,0-2.64-2.64A2.65,2.65,0,0,0,243.91,213.89Zm26,0a2.64,2.64,0,1,0-2.65-2.64A2.64,2.64,0,0,0,270,213.89Zm-39.07,13.89a2.64,2.64,0,0,0-2.64,2.64,2.44,2.44,0,0,0,0,.27c1.31.63,2.7,1.27,4.15,1.89a2.64,2.64,0,0,0-1.52-4.8Zm26,5.29a2.65,2.65,0,1,0-2.64-2.65A2.65,2.65,0,0,0,256.93,233.07Z" style="fill:#fff"></path><path d="M223.73,228.29c10.48,6.28,34.37,13.6,34.37,13.6l5.07-8.06-36.65-25.09c-1.42.4-2.81.83-4.09,1.28C214.25,212.9,213.16,222,223.73,228.29Z" style="fill:#263238"></path><path d="M253.05,238.35c3.23-6,6.53-11.88,10.11-17.65q2.67-4.32,5.47-8.55c1.87-2.82,4-5.46,5.86-8.3.1-.15.34,0,.23.17-2,2.74-3.58,5.77-5.39,8.62s-3.64,5.71-5.43,8.59c-3.58,5.73-7.17,11.47-10.61,17.29C253.19,238.68,253,238.51,253.05,238.35Z" style="fill:#263238"></path><path d="M277.84,331,267.65,282.7s10.25-15.71,2.24-29.33c-4.05-6.9-25-32.16-37.31-41.25-14.48-10.71-28.37-.86-33.77,6.48-10.82,14.69-21.56,49.25-25.29,112.45Z" style="fill:#455a64"></path><path d="M215.22,211.25a2.65,2.65,0,1,1,2.65,2.64A2.65,2.65,0,0,1,215.22,211.25Zm-23.4,41a2.64,2.64,0,1,0-2.64-2.64A2.65,2.65,0,0,0,191.82,252.22Zm26.05,0a2.64,2.64,0,1,0-2.65-2.64A2.64,2.64,0,0,0,217.87,252.22Zm26,0a2.64,2.64,0,1,0-2.64-2.64A2.65,2.65,0,0,0,243.91,252.22Zm23.4-2.67v0a2.63,2.63,0,0,0,1.76,2.48C268.58,251.33,268,250.49,267.31,249.55Zm-62.46-16.48a2.65,2.65,0,1,0-2.65-2.65A2.65,2.65,0,0,0,204.85,233.07Zm26,0a2.65,2.65,0,1,0-2.64-2.65A2.65,2.65,0,0,0,230.89,233.07Zm-39.07,57.49a2.65,2.65,0,1,0-2.64-2.65A2.65,2.65,0,0,0,191.82,290.56Zm26.05,0a2.65,2.65,0,1,0-2.65-2.65A2.65,2.65,0,0,0,217.87,290.56Zm26,0a2.65,2.65,0,1,0-2.64-2.65A2.65,2.65,0,0,0,243.91,290.56Zm24.4-4.71a2.64,2.64,0,0,0,1,4.62ZM181.1,267.47c-.22,1.1-.44,2.21-.65,3.35a2.64,2.64,0,0,0,1-2.06A2.56,2.56,0,0,0,181.1,267.47Zm23.75,3.93a2.65,2.65,0,1,0-2.65-2.64A2.64,2.64,0,0,0,204.85,271.4Zm26,0a2.65,2.65,0,1,0-2.64-2.64A2.64,2.64,0,0,0,230.89,271.4Zm26,0a2.65,2.65,0,1,0-2.64-2.64A2.65,2.65,0,0,0,256.93,271.4Zm-65.11,57.49a2.65,2.65,0,1,0-2.64-2.65A2.65,2.65,0,0,0,191.82,328.89Zm26.05,0a2.65,2.65,0,1,0-2.65-2.65A2.65,2.65,0,0,0,217.87,328.89Zm26,0a2.65,2.65,0,1,0-2.64-2.65A2.65,2.65,0,0,0,243.91,328.89Zm26,0a2.65,2.65,0,1,0-2.65-2.65A2.65,2.65,0,0,0,270,328.89ZM178.8,309.73a2.64,2.64,0,1,0-2.64-2.64A2.64,2.64,0,0,0,178.8,309.73Zm26,0a2.64,2.64,0,1,0-2.65-2.64A2.64,2.64,0,0,0,204.85,309.73Zm26,0a2.64,2.64,0,1,0-2.64-2.64A2.64,2.64,0,0,0,230.89,309.73Zm26,0a2.64,2.64,0,1,0-2.64-2.64A2.65,2.65,0,0,0,256.93,309.73Z" style="fill:#fff"></path><path d="M234.64,282.92a99,99,0,0,1,14.68-1.4c2.44,0,4.87.08,7.31.22,1.22.07,2.43.11,3.65.13a15.6,15.6,0,0,0,3.8-.27.09.09,0,0,1,.05.17,28.51,28.51,0,0,1-3.51.86,27.17,27.17,0,0,1-3.49.25c-2.48,0-5,0-7.45,0-5,0-10,.07-15,.47C234.46,283.34,234.41,283,234.64,282.92Z" style="fill:#263238"></path><path d="M224,290.21a107,107,0,0,1,11.6-3.67c2-.49,4-.87,6-1.2,1-.16,1.92-.29,2.88-.42s2.13-.14,3.19-.29c.11,0,.15.15,0,.17-1,.17-2,.51-2.93.75l-3,.69c-2,.47-3.93,1-5.9,1.41-3.95.91-7.88,1.84-11.8,2.88C223.91,290.59,223.85,290.28,224,290.21Z" style="fill:#263238"></path><path d="M208.51,215.63c.65,1.93,12,12.88,20.72,10.07,6.13-2,.93-14,.93-14l2.26-18.24-23.78-12S208.24,214.81,208.51,215.63Z" style="fill: rgb(247, 169, 160);"></path><path d="M208.51,193.11a35.05,35.05,0,0,0,21.77,17.53l2.15-17.22-23.79-12S208.58,186.67,208.51,193.11Z" style="fill:#263238"></path><path d="M252.3,162.79c7.94,29-8.56,37.08-14.82,38.78-5.69,1.55-25.25,6.1-36.15-22s.1-40.94,12.91-45.16S244.36,133.75,252.3,162.79Z" style="fill: rgb(247, 169, 160);"></path><path d="M244.23,159.6a18.19,18.19,0,0,1-2.09,0,3.39,3.39,0,0,1-2.12-.45,1.06,1.06,0,0,1-.25-1.28,2.67,2.67,0,0,1,2.46-1.12,3.94,3.94,0,0,1,2.68.9A1.14,1.14,0,0,1,244.23,159.6Z" style="fill:#263238"></path><path d="M223.92,164.13c.68-.22,1.28-.53,1.93-.81a3.36,3.36,0,0,0,1.8-1.21,1,1,0,0,0-.25-1.28,2.66,2.66,0,0,0-2.7-.12,4,4,0,0,0-2.15,1.83A1.15,1.15,0,0,0,223.92,164.13Z" style="fill:#263238"></path><path d="M229.54,169.82c0-.07-.13.13-.11.21.5,2,.74,4.37-.94,5.44-.05,0,0,.13,0,.1C230.69,174.78,230.34,171.63,229.54,169.82Z" style="fill:#263238"></path><path d="M227.29,168.11c-3.29.46-2.13,7,.92,6.58S230.05,167.72,227.29,168.11Z" style="fill:#263238"></path><path d="M226.07,168.68c-.51.47-.95,1.23-1.63,1.42s-1.51-.36-2.14-.93c-.07-.06-.12,0-.1.1.2,1.25.91,2.46,2.29,2.4s1.94-1.31,2-2.62C226.53,168.8,226.27,168.49,226.07,168.68Z" style="fill:#263238"></path><path d="M241.16,167.43c0-.08.18.07.19.15.28,2,.94,4.33,2.89,4.7.06,0,.07.11,0,.11C242,172.46,241.1,169.41,241.16,167.43Z" style="fill:#263238"></path><path d="M242.62,165c3.22-.8,4.58,5.71,1.6,6.45S239.91,165.67,242.62,165Z" style="fill:#263238"></path><path d="M244.06,165.14c.59.24,1.23.76,1.85.67s1.1-.91,1.41-1.68c0-.08.1,0,.12.05.3,1.23.16,2.61-1,3.1s-2.07-.45-2.62-1.63C243.72,165.44,243.83,165.05,244.06,165.14Z" style="fill:#263238"></path><path d="M233.56,186.33c.55.42,1.12,1,1.87,1a5.68,5.68,0,0,0,2.13-.8.07.07,0,0,1,.1.09,2.79,2.79,0,0,1-2.45,1.45,2.2,2.2,0,0,1-1.84-1.6C233.32,186.34,233.48,186.27,233.56,186.33Z" style="fill:#263238"></path><path d="M240.63,177.42s1,2.94,1.26,4.37c0,.13-.31.26-.79.38,0,0,0,0,0,0A6.9,6.9,0,0,1,234,180.9a.15.15,0,0,1,.17-.24,10.38,10.38,0,0,0,6.52.6c0-.41-1.86-5-1.64-5a12.23,12.23,0,0,1,3.38.12c-1.88-6.19-4.74-12-6.53-18.22a.2.2,0,0,1,.36-.16c3.43,5.9,5.75,13,7.86,19.32C244.38,178.07,241.25,177.55,240.63,177.42Z" style="fill:#263238"></path><path d="M240.76,181.53a8.36,8.36,0,0,1-2.58,3.37,3.71,3.71,0,0,1-2.18.73c-1.71,0-2.14-1.46-2.18-2.79a9,9,0,0,1,.2-2.12A10.91,10.91,0,0,0,240.76,181.53Z" style="fill:#263238"></path><path d="M238.18,184.9a3.71,3.71,0,0,1-2.18.73c-1.71,0-2.14-1.46-2.18-2.79C235.58,182.56,237.59,183.27,238.18,184.9Z" style="fill:#ff9bbc"></path><path d="M202.5,180.84a12.26,12.26,0,0,0,5.3-10.9,31.84,31.84,0,0,0,11.33-12.32c-.1.64-.87,5.23-1.33,7.56,18.14-6.3,21.76-21.45,21.76-21.45,7,5.13,8.76,8.81,9.92,10.6,0,0-1.58-11.47-8.63-18.25-8.61-8.3-33.33-7.17-42.75,6.77C188,157.88,202.5,180.84,202.5,180.84Z" style="fill:#263238"></path><path d="M231.52,160a34.81,34.81,0,0,1-9,5,0,0,0,0,1,0,0,29.61,29.61,0,0,0,12.46-10.35,28.6,28.6,0,0,0,3.18-6.23,19.54,19.54,0,0,0,1.41-7.49.15.15,0,0,1,.29,0,22.71,22.71,0,0,1-.38,7.58,20.82,20.82,0,0,1-3.21,6.8,23.65,23.65,0,0,1-4.69,4.79" style="fill:#263238"></path><path d="M206.32,178.51s-8.15-8.06-11.92-5,3.53,15.58,8.79,16.52a5.09,5.09,0,0,0,6.22-3.92Z" style="fill: rgb(247, 169, 160);"></path><path d="M196.58,177.05c-.08,0-.07.12,0,.14,3.71.77,6.11,3.64,8,6.73-1.26-1.1-2.79-1.54-4.28,0-.07.08,0,.21.13.17a3.14,3.14,0,0,1,3.59.46,15.4,15.4,0,0,1,2.12,2.44c.22.28.75,0,.56-.32a.25.25,0,0,0,0-.07C205.94,182.17,201.39,176.63,196.58,177.05Z" style="fill:#263238"></path><circle cx="327.51" cy="239" r="76.21" transform="translate(-13.14 458.87) rotate(-68.96)" style="fill:#FFB511"></circle><polygon points="394.82 273.6 361.14 307.28 408.54 321.01 394.82 273.6" style="fill:#FFB511"></polygon><path d="M327.58,189.32A50,50,0,0,1,372,261.61c-.42.43-4.54,8.36-12.9,10.77a9.87,9.87,0,0,1-2.83.29,9.67,9.67,0,0,1-8.08-3.83,12.2,12.2,0,0,1-2.27-6.8v-4.82a24.12,24.12,0,0,1-18.29,8.5c-14,0-25.37-12.19-25.37-26.79s11.34-26.5,25.37-26.5,25.09,12,25.09,26.5v22.68h.15a6.33,6.33,0,0,0,.85,3.12,2.86,2.86,0,0,0,2.55,1h1.13c4.25-1,7.66-6,8.22-7.37a40.13,40.13,0,0,0,4.68-19.42,42.74,42.74,0,1,0-42.67,42.81,38.38,38.38,0,0,0,10.64-1.13c1.84-.43,3.82.42,4,2.41a3.09,3.09,0,0,1-2.41,4.11,48.69,48.69,0,0,1-12.19,1.55,49.68,49.68,0,1,1,0-99.36Zm0,69c9.79,0,18.15-8.5,18.15-19.42s-8.36-19.56-18.15-19.56-18,8.79-18,19.56S317.66,258.35,327.58,258.35Z" style="fill:#fff"></path><path d="M194.54,249.29c4.56,36.35,11.74,86.16,30.81,90,31.35,6.29,59.58,12.12,79.67,10.88,7.19-.44,1.3-50.77-6.4-51-10-.34-53.48-6-56.15-9.87-1.51-2.2-12.54-23.69-27.83-52.28C198.69,207.16,193.08,237.61,194.54,249.29Z" style="fill: rgb(247, 169, 160);"></path><path d="M302.43,350.16c19.59,0,44,1.14,63-10.1a10.91,10.91,0,0,0,4.78-5.34c8.62-4.88,8.9-10.42,8.9-10.42,6.64-7,6.15-12.71,6.15-12.71s10.06-5.84,7.53-12.5c-2.8-7.49-16.38,2.18-27.1,2.94-24.55,1.72-59.94-2.69-67.07-2.9Z" style="fill: rgb(247, 169, 160);"></path><path d="M341.23,321.92c7.22-.65,14.32-1.1,21.41-2.73,7.78-1.78,15-4.8,22.36-7.7a.19.19,0,0,1,.17.35c-12.55,7.36-29.41,11.08-43.91,10.41C340.91,322.23,340.87,322,341.23,321.92Z" style="fill:#263238"></path><path d="M340.12,336.89c7-1,19.25-2.9,38.89-12.8.06,0,.14.07.07.11-11.89,8.13-24.66,12.14-38.91,13C339.73,337.25,339.65,337,340.12,336.89Z" style="fill:#263238"></path><path d="M339.67,345c11.82-2.19,19-5.07,30.48-10.25.06,0,.13.07.06.11-12.44,7.26-17.77,8.49-30.52,10.56C339.25,345.44,339.21,345,339.67,345Z" style="fill:#263238"></path><path d="M336,302.23c-3.28-1-2.76-2.77,3-4.93s30.28-5.81,28.28-14.27-36.55-2.78-45.83,1.54-22.78,14.56-22.78,14.56C305.57,299.38,322.36,301.58,336,302.23Z" style="fill: rgb(247, 169, 160);"></path><path d="M194.29,288.88,231,260.25s-9.56-21.33-16.52-32.4c-9.21-14.63-16.8-14.65-20.11,6.29C192.11,248.15,194.29,288.88,194.29,288.88Z" style="fill:#455a64"></path><path d="M194.47,249.58a2.65,2.65,0,0,1-1.13,2.16c0-1.46,0-2.88.07-4.27A2.64,2.64,0,0,1,194.47,249.58Zm23.4,2.64a2.64,2.64,0,1,0-2.65-2.64A2.64,2.64,0,0,0,217.87,252.22Zm-13-19.15a2.65,2.65,0,1,0-2.65-2.65A2.65,2.65,0,0,0,204.85,233.07Zm-10.67,53.65c.06,1.24.1,2,.11,2.14a2.59,2.59,0,0,0-.11-2.14Zm10.67-15.32a2.65,2.65,0,1,0-2.65-2.64A2.64,2.64,0,0,0,204.85,271.4Z" style="fill:#fff"></path><path d="M226.5,263.76c.34-.38,4-3.45,4.33-3.59-1.18-2.48-2.4-5-3.56-7.44-.58-1.25-1.14-2.51-1.68-3.77s-1.35-3-1.87-4.18c-.09-.2.15-.32.25-.14.84,1.54,1.42,2.71,2.15,4,.51.94,1,1.91,1.47,2.87l-.18-.82c-.34-1.47-.55-2.95-1-4.41-.06-.18.23-.25.28-.07.36,1.47.9,2.87,1.29,4.33a21.92,21.92,0,0,1,.78,3.34c1,2.08,2.12,4.2,3,6.29a48.75,48.75,0,0,1-5.19,3.68C226.52,263.93,226.45,263.82,226.5,263.76Z" style="fill:#263238"></path><path d="M195.29,282.49c5.05-4.53,10.16-9,15.46-13.21q4-3.16,8-6.21c2.71-2,5.63-3.78,8.3-5.84.15-.12.32.13.17.23-2.77,1.92-5.32,4.23-8,6.3s-5.35,4.16-8,6.26c-5.3,4.2-10.62,8.39-15.82,12.71C195.32,282.85,195.16,282.62,195.29,282.49Z" style="fill:#263238"></path><path d="M193.78,289.44c-1-6-1.33-31.46-.5-37.6a.07.07,0,0,1,.13,0c.49,6.14.75,30.6.85,36.6.09-.08,4.3-3.16,5.52-3.95.18-.11.33.1.17.23A54.55,54.55,0,0,1,193.78,289.44Z" style="fill:#263238"></path><path d="M341.07,158.12c8.47.31,21.13-3.41,27-1.19A7.22,7.22,0,0,1,373,164s5.64-4.09,10.66-1.19c2.58,1.49,2.47,6.92,2.47,6.92s4.66-3.08,9-.23c3.42,2.27,2.79,7.38,2.79,7.38s5.86-.88,8.61,2.56c5.57,7-10.73,38.28-24.79,37.11-6.55-.54-2.15-8-2.15-8s-8.91,9.16-15.45,6-.24-12.51-.24-12.51-8.71,8.8-15.16,4.8c-6.71-4.16,1.18-12.39,1.18-12.39s-8.35,4.5-12.58.31c-7-6.92,10.36-14.65,12.31-22.38l-9.38-9.71Z" style="fill: rgb(247, 169, 160);"></path><path d="M354.2,157c-8-1-11.94-13.6-19.45-15.65-10.16-2.77-6.56,12.16,5.5,21.34l10.62,5.49Z" style="fill: rgb(247, 169, 160);"></path><path d="M397.92,177.71a.09.09,0,0,1,.18,0c-2.85,11.61-9.55,23.49-18.72,31.26-.3.26-.85-.12-.57-.47C386.73,198.73,393,189.39,397.92,177.71Z" style="fill:#263238"></path><path d="M386.28,169.62c.05-.12.27,0,.23.11-3,11.94-10.91,25.11-22.54,32.83-.4.26-1,.1-.59-.24C370.73,196.6,381.89,180.16,386.28,169.62Z" style="fill:#263238"></path><path d="M348.88,194.74c10.86-7.83,18.13-18.35,24-30.23.08-.15.29,0,.26.12-1.3,6.6-5.86,13.78-9.87,19.06a35.23,35.23,0,0,1-14.15,11.43C348.93,195.22,348.64,194.91,348.88,194.74Z" style="fill:#263238"></path></g></svg>